<svg width="200" height="200" viewBox="0 0 200 200" fill="none" xmlns="http://www.w3.org/2000/svg">
<rect width="200" height="200" fill="#466995"/>
<g clip-path="url(#clip0_401_6)">
<path d="M175.471 25.4321C176.255 26.1015 176.802 27.0065 177.029 28.0121C177.256 29.0177 177.152 30.0699 176.732 31.0114C162.115 63.7802 131.42 109.064 108.95 132.661C102.652 139.263 94.884 144.284 86.279 147.317C86.1071 149.485 85.7058 152.456 84.7505 155.609C82.8302 161.905 78.3782 169.739 68.4329 172.232C58.8013 174.526 48.8197 174.954 39.0271 173.493C37.2061 173.206 35.4108 172.774 33.658 172.204C32.0362 171.71 30.5247 170.909 29.206 169.844C28.3363 169.104 27.6662 168.158 27.2571 167.092C26.7499 165.725 26.7635 164.218 27.2953 162.86C28.2029 160.52 30.3142 159.23 31.6995 158.542C35.4636 156.66 37.6705 154.214 39.9824 150.651C40.89 149.275 41.7403 147.813 42.7243 146.142L43.8421 144.25C45.2846 141.814 46.9565 139.091 49.0583 136.148C54.1026 129.088 60.5322 127.311 65.7388 127.588C66.9426 127.655 68.0604 127.827 69.0635 128.047C69.6558 126.404 70.4201 124.417 71.3372 122.238C73.8307 116.325 77.6235 108.682 82.6773 102.472C103.466 76.9641 141.718 43.1827 169.777 25.05C170.641 24.4924 171.662 24.2285 172.688 24.2973C173.713 24.3662 174.69 24.7641 175.471 25.4321ZM69.2355 138.088C67.9677 137.536 66.6126 137.213 65.2325 137.132C62.8823 137.008 59.7583 137.61 56.8349 141.709C54.9529 144.336 53.4434 146.791 52.0581 149.132L51.055 150.823C50.0423 152.552 49.0201 154.281 47.9979 155.867C46.0631 159.002 43.6076 161.784 40.7371 164.093C47.3291 165.163 57.3221 165.153 66.121 162.946C71.4614 161.618 74.1746 157.51 75.6077 152.819C76.2994 150.489 76.7037 148.083 76.8114 145.654L69.2355 138.088ZM82.9926 138.336C84.139 137.954 85.6389 137.381 87.3681 136.588C92.8716 134.035 97.8462 130.47 102.033 126.079C120.185 107.01 144.183 72.8656 159.851 43.6221C135.107 62.0319 106.676 88.1418 90.0909 108.51C85.8682 113.698 82.4958 120.385 80.1361 125.955C78.9801 128.706 78.0916 131.114 77.5088 132.833V132.843L83.0021 138.336H82.9926ZM35.4827 167.379L35.5496 167.331C35.529 167.347 35.5065 167.36 35.4827 167.37V167.379ZM69.7036 138.308L69.7227 138.317H69.7036V138.308Z" fill="white"/>
</g>
<defs>
<clipPath id="clip0_401_6">
<rect width="152.857" height="152.857" fill="white" transform="translate(24.2858 24.2857)"/>
</clipPath>
</defs>
</svg>
